<svg width="1787" height="1787" viewBox="0 0 1787 1787" fill="none" xmlns="http://www.w3.org/2000/svg">
<rect width="1787" height="1787" fill="#0B001B"/>
<g filter="url(#filter0_f_39_1827)">
<rect x="510.799" y="981.195" width="105.896" height="341.746" rx="52.9481" fill="url(#paint0_linear_39_1827)"/>
</g>
<rect x="510.799" y="981.195" width="105.896" height="341.746" rx="52.9481" fill="url(#paint1_linear_39_1827)"/>
<rect x="510.799" y="1018.89" width="105.896" height="304.049" rx="52.9481" fill="url(#paint2_linear_39_1827)"/>
<rect x="510.799" y="1069.24" width="105.896" height="253.158" rx="52.9481" fill="url(#paint3_linear_39_1827)"/>
<rect x="510.799" y="1112.26" width="105.896" height="210.138" rx="52.9481" fill="url(#paint4_linear_39_1827)"/>
<g filter="url(#filter1_f_39_1827)">
<rect x="616.696" y="840.552" width="105.896" height="482.389" rx="52.9481" fill="url(#paint5_linear_39_1827)"/>
</g>
<rect x="616.696" y="840.552" width="105.896" height="482.389" rx="52.9481" fill="url(#paint6_linear_39_1827)"/>
<rect x="616.696" y="893.763" width="105.896" height="429.178" rx="52.9481" fill="url(#paint7_linear_39_1827)"/>
<rect x="616.696" y="964.827" width="105.896" height="357.344" rx="52.9481" fill="url(#paint8_linear_39_1827)"/>
<rect x="616.696" y="1025.55" width="105.896" height="296.619" rx="52.9481" fill="url(#paint9_linear_39_1827)"/>
<g filter="url(#filter2_f_39_1827)">
<rect x="722.592" y="731.346" width="105.896" height="591.332" rx="52.9481" fill="url(#paint10_linear_39_1827)"/>
</g>
<rect x="722.592" y="731.346" width="105.896" height="591.332" rx="52.9481" fill="url(#paint11_linear_39_1827)"/>
<rect x="722.592" y="797.197" width="105.896" height="526.104" rx="52.9481" fill="url(#paint12_linear_39_1827)"/>
<rect x="722.592" y="883.688" width="105.896" height="438.047" rx="52.9481" fill="url(#paint13_linear_39_1827)"/>
<rect x="722.592" y="958.127" width="105.896" height="363.608" rx="52.9481" fill="url(#paint14_linear_39_1827)"/>
<g filter="url(#filter3_f_39_1827)">
<rect x="1146.18" y="883.572" width="105.896" height="439.266" rx="52.9481" fill="url(#paint15_linear_39_1827)"/>
</g>
<rect x="1146.18" y="883.572" width="105.896" height="439.266" rx="52.9481" fill="url(#paint16_linear_39_1827)"/>
<rect x="1146.18" y="932.488" width="105.896" height="390.812" rx="52.9481" fill="url(#paint17_linear_39_1827)"/>
<rect x="1146.18" y="996.738" width="105.896" height="325.4" rx="52.9481" fill="url(#paint18_linear_39_1827)"/>
<rect x="1146.18" y="1052.03" width="105.896" height="270.103" rx="52.9481" fill="url(#paint19_linear_39_1827)"/>
<g filter="url(#filter4_f_39_1827)">
<rect x="1040.28" y="779.331" width="105.896" height="543.398" rx="52.9481" fill="url(#paint20_linear_39_1827)"/>
</g>
<rect x="1040.28" y="779.331" width="105.896" height="543.398" rx="52.9481" fill="url(#paint21_linear_39_1827)"/>
<rect x="1040.28" y="839.843" width="105.896" height="483.457" rx="52.9481" fill="url(#paint22_linear_39_1827)"/>
<rect x="1040.28" y="919.323" width="105.896" height="402.539" rx="52.9481" fill="url(#paint23_linear_39_1827)"/>
<rect x="1040.28" y="987.728" width="105.896" height="334.133" rx="52.9481" fill="url(#paint24_linear_39_1827)"/>
<g filter="url(#filter5_f_39_1827)">
<rect x="934.385" y="635.378" width="105.896" height="687.2" rx="52.9481" fill="url(#paint25_linear_39_1827)"/>
</g>
<rect x="934.385" y="635.378" width="105.896" height="687.2" rx="52.9481" fill="url(#paint26_linear_39_1827)"/>
<rect x="934.385" y="711.904" width="105.896" height="611.397" rx="52.9481" fill="url(#paint27_linear_39_1827)"/>
<rect x="934.385" y="812.417" width="105.896" height="509.064" rx="52.9481" fill="url(#paint28_linear_39_1827)"/>
<rect x="934.385" y="898.925" width="105.896" height="422.556" rx="52.9481" fill="url(#paint29_linear_39_1827)"/>
<g filter="url(#filter6_f_39_1827)">
<rect x="828.488" y="494.734" width="105.896" height="827.695" rx="52.9481" fill="url(#paint30_linear_39_1827)"/>
</g>
<rect x="828.488" y="494.734" width="105.896" height="827.695" rx="52.9481" fill="url(#paint31_linear_39_1827)"/>
<rect x="828.488" y="586.906" width="105.896" height="736.395" rx="52.9481" fill="url(#paint32_linear_39_1827)"/>
<rect x="828.488" y="707.969" width="105.896" height="613.14" rx="52.9481" fill="url(#paint33_linear_39_1827)"/>
<rect x="828.488" y="812.163" width="105.896" height="508.947" rx="52.9481" fill="url(#paint34_linear_39_1827)"/>
<rect x="1039" y="1208.81" width="132.312" height="40.7113" rx="20.3556" transform="rotate(-37.1219 1039 1208.81)" fill="#6A171F"/>
<circle cx="1067.52" cy="1212.76" r="20.3556" transform="rotate(-37.1219 1067.52 1212.76)" fill="#A04252"/>
<circle cx="1067.52" cy="1212.76" r="17.3023" transform="rotate(-37.1219 1067.52 1212.76)" stroke="#6A171F" stroke-width="0.678521"/>
<circle cx="1067.31" cy="1212.49" r="10.8563" transform="rotate(-37.1219 1067.31 1212.49)" stroke="#6A171F" stroke-width="0.678521"/>
<circle cx="1067.76" cy="1212.79" r="3.9015" transform="rotate(-37.1219 1067.76 1212.79)" stroke="#6A171F" stroke-width="0.678521"/>
<path d="M1074.95 1188.84L1091.68 1176.18" stroke="#A04252" stroke-width="1.01778" stroke-linecap="round"/>
<path d="M1095.13 1173.57L1111.86 1160.9" stroke="#A04252" stroke-width="1.01778" stroke-linecap="round"/>
<path d="M1118.26 1156.06L1134.99 1143.39" stroke="#A04252" stroke-width="1.01778" stroke-linecap="round"/>
<path d="M1103.99 1176.22L1144.1 1145.86" stroke="#A04252" stroke-width="1.01778" stroke-linecap="round"/>
<path d="M1082.82 1192.24L1089.96 1186.84" stroke="#A04252" stroke-width="1.01778" stroke-linecap="round"/>
<path d="M1110.04 1190.36L1150.16 1160" stroke="#A04252" stroke-width="1.01778" stroke-linecap="round"/>
<path d="M1090.6 1205.08L1104.87 1194.27" stroke="#A04252" stroke-width="1.01778" stroke-linecap="round"/>
<path d="M1090.72 1195.63L1130.83 1165.26" stroke="#A04252" stroke-width="1.01778" stroke-linecap="round"/>
<path d="M1136 1161.35L1143.14 1155.95" stroke="#A04252" stroke-width="1.01778" stroke-linecap="round"/>
<path d="M1148.06 1152.22L1150.77 1150.18" stroke="#A04252" stroke-width="1.01778" stroke-linecap="round"/>
<path d="M1092.15 1213.26L1132.19 1182.96" stroke="#A04252" stroke-width="1.01778" stroke-linecap="round"/>
<rect x="950.427" y="879.275" width="469.105" height="144.34" rx="72.1699" transform="rotate(66.161 950.427 879.275)" fill="#6A171F"/>
<circle cx="913.583" cy="974.456" r="72.1699" transform="rotate(66.161 913.583 974.456)" fill="#A04252"/>
<circle cx="913.583" cy="974.456" r="61.3445" transform="rotate(66.161 913.583 974.456)" stroke="#6A171F" stroke-width="2.40566"/>
<circle cx="914.684" cy="973.97" r="38.4906" transform="rotate(66.161 914.684 973.97)" stroke="#6A171F" stroke-width="2.40566"/>
<circle cx="913.276" cy="975.249" r="13.8326" transform="rotate(66.161 913.276 975.249)" stroke="#6A171F" stroke-width="2.40566"/>
<path d="M990.061 1019.56L1020.14 1087.63" stroke="#A04252" stroke-width="3.6085" stroke-linecap="round"/>
<path d="M1026.33 1101.64L1056.4 1169.71" stroke="#A04252" stroke-width="3.6085" stroke-linecap="round"/>
<path d="M1067.9 1195.73L1097.98 1263.8" stroke="#A04252" stroke-width="3.6085" stroke-linecap="round"/>
<path d="M1009.95 1130.06L1082.04 1293.21" stroke="#A04252" stroke-width="3.6085" stroke-linecap="round"/>
<path d="M971.916 1043.98L984.742 1073" stroke="#A04252" stroke-width="3.6085" stroke-linecap="round"/>
<path d="M956.237 1139.44L1028.33 1302.59" stroke="#A04252" stroke-width="3.6085" stroke-linecap="round"/>
<path d="M921.296 1060.36L946.948 1118.42" stroke="#A04252" stroke-width="3.6085" stroke-linecap="round"/>
<path d="M953.805 1068.46L1025.9 1231.61" stroke="#A04252" stroke-width="3.6085" stroke-linecap="round"/>
<path d="M1035.19 1252.63L1048.01 1281.66" stroke="#A04252" stroke-width="3.6085" stroke-linecap="round"/>
<path d="M1056.86 1301.68L1061.72 1312.69" stroke="#A04252" stroke-width="3.6085" stroke-linecap="round"/>
<path d="M891.784 1059.05L963.733 1221.88" stroke="#A04252" stroke-width="3.6085" stroke-linecap="round"/>
<path d="M979.29 1257.08L1007 1319.8" stroke="#A04252" stroke-width="3.6085" stroke-linecap="round"/>
<g style="mix-blend-mode:exclusion" filter="url(#filter7_f_39_1827)">
<path d="M246.347 1584.04C32.2858 1543.05 139.65 1441.16 220.089 1395.34C617.703 1191.65 1062.83 1272.88 1311.65 1276.62C1560.47 1280.37 1591.73 1416.58 1639.24 1507.81C1686.76 1599.03 1410.43 1606.53 1336.66 1649.02C1262.89 1691.5 1055.33 1767.73 902.784 1649.02C750.241 1530.3 513.923 1635.27 246.347 1584.04Z" fill="url(#paint35_linear_39_1827)" fill-opacity="0.44"/>
</g>
<g style="mix-blend-mode:soft-light" filter="url(#filter8_f_39_1827)">
<path d="M427.385 1491.42C274.219 1462.06 351.041 1389.07 408.597 1356.25C693.1 1210.33 1011.6 1268.52 1189.64 1271.2C1367.68 1273.89 1390.04 1371.47 1424.04 1436.82C1458.04 1502.17 1260.32 1507.54 1207.53 1537.97C1154.75 1568.41 1006.23 1623.02 897.084 1537.97C787.935 1452.93 618.843 1528.13 427.385 1491.42Z" fill="#0A0040" fill-opacity="0.29"/>
</g>
<rect x="544.801" y="1285.49" width="132.312" height="40.7112" rx="20.3556" transform="rotate(-79.2333 544.801 1285.49)" fill="#6A171F"/>
<circle cx="568.6" cy="1269.29" r="20.3556" transform="rotate(-79.2333 568.6 1269.29)" fill="#A04252"/>
<circle cx="568.6" cy="1269.29" r="17.3023" transform="rotate(-79.2333 568.6 1269.29)" stroke="#6A171F" stroke-width="0.678521"/>
<circle cx="568.267" cy="1269.23" r="10.8563" transform="rotate(-79.2333 568.267 1269.23)" stroke="#6A171F" stroke-width="0.678521"/>
<circle cx="568.799" cy="1269.16" r="3.90149" transform="rotate(-79.2333 568.799 1269.16)" stroke="#6A171F" stroke-width="0.678521"/>
<path d="M558.072 1246.57L561.993 1225.95" stroke="#A04252" stroke-width="1.01778" stroke-linecap="round"/>
<path d="M562.8 1221.71L566.721 1201.09" stroke="#A04252" stroke-width="1.01778" stroke-linecap="round"/>
<path d="M568.22 1193.2L572.141 1172.59" stroke="#A04252" stroke-width="1.01778" stroke-linecap="round"/>
<path d="M571.153 1217.73L580.551 1168.31" stroke="#A04252" stroke-width="1.01778" stroke-linecap="round"/>
<path d="M566.194 1243.81L567.866 1235.02" stroke="#A04252" stroke-width="1.01778" stroke-linecap="round"/>
<path d="M585.125 1224.16L594.524 1174.74" stroke="#A04252" stroke-width="1.01778" stroke-linecap="round"/>
<path d="M580.57 1248.11L583.915 1230.53" stroke="#A04252" stroke-width="1.01778" stroke-linecap="round"/>
<path d="M574.321 1241.03L583.719 1191.6" stroke="#A04252" stroke-width="1.01778" stroke-linecap="round"/>
<path d="M584.93 1185.23L586.602 1176.44" stroke="#A04252" stroke-width="1.01778" stroke-linecap="round"/>
<path d="M587.755 1170.38L588.39 1167.04" stroke="#A04252" stroke-width="1.01778" stroke-linecap="round"/>
<path d="M587.211 1253.15L596.591 1203.82" stroke="#A04252" stroke-width="1.01778" stroke-linecap="round"/>
<rect x="461.16" y="1210.05" width="469.105" height="144.34" rx="72.1699" fill="#6A171F"/>
<circle cx="533.33" cy="1282.22" r="72.1699" fill="#A04252"/>
<circle cx="533.33" cy="1282.22" r="61.3445" stroke="#6A171F" stroke-width="2.40566"/>
<circle cx="533.33" cy="1281.02" r="38.4906" stroke="#6A171F" stroke-width="2.40566"/>
<circle cx="533.931" cy="1282.82" r="13.8326" stroke="#6A171F" stroke-width="2.40566"/>
<path d="M605.5 1230.5H679.913" stroke="#A04252" stroke-width="3.6085" stroke-linecap="round"/>
<path d="M695.233 1230.5H769.645" stroke="#A04252" stroke-width="3.6085" stroke-linecap="round"/>
<path d="M798.097 1230.5H872.51" stroke="#A04252" stroke-width="3.6085" stroke-linecap="round"/>
<path d="M714.605 1256.96H892.977" stroke="#A04252" stroke-width="3.6085" stroke-linecap="round"/>
<path d="M620.495 1256.96H652.23" stroke="#A04252" stroke-width="3.6085" stroke-linecap="round"/>
<path d="M701.473 1309.89H879.845" stroke="#A04252" stroke-width="3.6085" stroke-linecap="round"/>
<path d="M615.023 1309.89H678.493" stroke="#A04252" stroke-width="3.6085" stroke-linecap="round"/>
<path d="M635.571 1283.43H813.943" stroke="#A04252" stroke-width="3.6085" stroke-linecap="round"/>
<path d="M836.923 1283.43H868.658" stroke="#A04252" stroke-width="3.6085" stroke-linecap="round"/>
<path d="M890.545 1283.43L902.582 1283.43" stroke="#A04252" stroke-width="3.6085" stroke-linecap="round"/>
<path d="M601.892 1336.35H779.911" stroke="#A04252" stroke-width="3.6085" stroke-linecap="round"/>
<path d="M818.401 1336.35L886.963 1336.35" stroke="#A04252" stroke-width="3.6085" stroke-linecap="round"/>
<rect x="788.331" y="1318.84" width="469.105" height="144.34" rx="72.1699" transform="rotate(-17.2174 788.331 1318.84)" fill="#6A171F"/>
<circle cx="878.629" cy="1366.41" r="72.1699" transform="rotate(-17.2174 878.629 1366.41)" fill="#A04252"/>
<circle cx="878.629" cy="1366.41" r="61.3445" transform="rotate(-17.2174 878.629 1366.41)" stroke="#6A171F" stroke-width="2.40566"/>
<circle cx="878.273" cy="1365.26" r="38.4906" transform="rotate(-17.2174 878.273 1365.26)" stroke="#6A171F" stroke-width="2.40566"/>
<circle cx="879.381" cy="1366.81" r="13.8326" transform="rotate(-17.2174 879.381 1366.81)" stroke="#6A171F" stroke-width="2.40566"/>
<path d="M932.255 1295.64L1003.33 1273.62" stroke="#A04252" stroke-width="3.6085" stroke-linecap="round"/>
<path d="M1017.97 1269.08L1089.05 1247.06" stroke="#A04252" stroke-width="3.6085" stroke-linecap="round"/>
<path d="M1116.22 1238.64L1187.3 1216.61" stroke="#A04252" stroke-width="3.6085" stroke-linecap="round"/>
<path d="M1044.3 1288.63L1214.68 1235.83" stroke="#A04252" stroke-width="3.6085" stroke-linecap="round"/>
<path d="M954.411 1316.48L984.723 1307.09" stroke="#A04252" stroke-width="3.6085" stroke-linecap="round"/>
<path d="M1047.43 1343.06L1217.81 1290.27" stroke="#A04252" stroke-width="3.6085" stroke-linecap="round"/>
<path d="M964.85 1368.65L1025.48 1349.87" stroke="#A04252" stroke-width="3.6085" stroke-linecap="round"/>
<path d="M976.644 1337.3L1147.02 1284.5" stroke="#A04252" stroke-width="3.6085" stroke-linecap="round"/>
<path d="M1168.97 1277.7L1199.29 1268.3" stroke="#A04252" stroke-width="3.6085" stroke-linecap="round"/>
<path d="M1220.19 1261.82L1231.69 1258.26" stroke="#A04252" stroke-width="3.6085" stroke-linecap="round"/>
<path d="M960.139 1397.82L1130.18 1345.12" stroke="#A04252" stroke-width="3.6085" stroke-linecap="round"/>
<path d="M1166.95 1333.73L1232.44 1313.44" stroke="#A04252" stroke-width="3.6085" stroke-linecap="round"/>
<rect x="992.374" y="1118.39" width="469.105" height="144.34" rx="72.1699" transform="rotate(132.97 992.374 1118.39)" fill="#6A171F"/>
<circle cx="890.374" cy="1122.01" r="72.1699" transform="rotate(132.97 890.374 1122.01)" fill="#A04252"/>
<circle cx="890.374" cy="1122.01" r="61.3445" transform="rotate(132.97 890.374 1122.01)" stroke="#6A171F" stroke-width="2.40566"/>
<circle cx="891.254" cy="1122.83" r="38.4906" transform="rotate(132.97 891.254 1122.83)" stroke="#6A171F" stroke-width="2.40566"/>
<circle cx="889.524" cy="1122.04" r="13.8326" transform="rotate(132.97 889.524 1122.04)" stroke="#6A171F" stroke-width="2.40566"/>
<path d="M879.027 1210.07L828.306 1264.52" stroke="#A04252" stroke-width="3.6085" stroke-linecap="round"/>
<path d="M817.864 1275.73L767.143 1330.17" stroke="#A04252" stroke-width="3.6085" stroke-linecap="round"/>
<path d="M747.749 1350.99L697.028 1405.44" stroke="#A04252" stroke-width="3.6085" stroke-linecap="round"/>
<path d="M785.297 1271.86L663.716 1402.38" stroke="#A04252" stroke-width="3.6085" stroke-linecap="round"/>
<path d="M849.444 1203L827.813 1226.22" stroke="#A04252" stroke-width="3.6085" stroke-linecap="round"/>
<path d="M755.522 1226.18L633.941 1356.7" stroke="#A04252" stroke-width="3.6085" stroke-linecap="round"/>
<path d="M814.448 1162.92L771.186 1209.37" stroke="#A04252" stroke-width="3.6085" stroke-linecap="round"/>
<path d="M819.805 1196L698.224 1326.51" stroke="#A04252" stroke-width="3.6085" stroke-linecap="round"/>
<path d="M682.56 1343.33L660.929 1366.55" stroke="#A04252" stroke-width="3.6085" stroke-linecap="round"/>
<path d="M646.011 1382.56L637.807 1391.37" stroke="#A04252" stroke-width="3.6085" stroke-linecap="round"/>
<path d="M804.036 1135.28L682.695 1265.54" stroke="#A04252" stroke-width="3.6085" stroke-linecap="round"/>
<path d="M656.459 1293.7L609.727 1343.87" stroke="#A04252" stroke-width="3.6085" stroke-linecap="round"/>
<g filter="url(#filter9_f_39_1827)">
<rect x="838.21" y="1157.02" width="99.2778" height="121.261" rx="49.6389" fill="url(#paint36_linear_39_1827)"/>
<rect x="937.488" y="1034.14" width="99.2778" height="244.138" rx="49.6389" fill="url(#paint37_linear_39_1827)"/>
<rect x="1036.77" y="1203.1" width="99.2778" height="75.1816" rx="37.5908" fill="url(#paint38_linear_39_1827)"/>
</g>
<rect x="838.21" y="1118.24" width="99.2778" height="160.043" rx="49.6389" fill="#ECECEC"/>
<rect x="937.488" y="1089.76" width="99.2778" height="188.525" rx="49.6389" fill="#ECECEC"/>
<rect x="1036.77" y="1150.79" width="99.2778" height="127.492" rx="49.6389" fill="#ECECEC"/>
<rect x="925.526" y="1135.6" width="469.105" height="144.34" rx="72.1699" transform="rotate(28.8842 925.526 1135.6)" fill="#6A171F"/>
<circle cx="953.856" cy="1233.65" r="72.1699" transform="rotate(28.8842 953.856 1233.65)" fill="#A04252"/>
<circle cx="953.857" cy="1233.66" r="61.3445" transform="rotate(28.8842 953.857 1233.66)" stroke="#6A171F" stroke-width="2.40566"/>
<circle cx="954.438" cy="1232.6" r="38.4906" transform="rotate(28.8842 954.438 1232.6)" stroke="#6A171F" stroke-width="2.40566"/>
<circle cx="954.093" cy="1234.47" r="13.8326" transform="rotate(28.8842 954.093 1234.47)" stroke="#6A171F" stroke-width="2.40566"/>
<path d="M1042.03 1223.23L1107.19 1259.17" stroke="#A04252" stroke-width="3.6085" stroke-linecap="round"/>
<path d="M1120.6 1266.57L1185.76 1302.52" stroke="#A04252" stroke-width="3.6085" stroke-linecap="round"/>
<path d="M1210.67 1316.26L1275.83 1352.21" stroke="#A04252" stroke-width="3.6085" stroke-linecap="round"/>
<path d="M1124.78 1299.1L1280.96 1385.26" stroke="#A04252" stroke-width="3.6085" stroke-linecap="round"/>
<path d="M1042.38 1253.64L1070.17 1268.97" stroke="#A04252" stroke-width="3.6085" stroke-linecap="round"/>
<path d="M1087.72 1339.1L1243.9 1425.26" stroke="#A04252" stroke-width="3.6085" stroke-linecap="round"/>
<path d="M1012.02 1297.34L1067.6 1328" stroke="#A04252" stroke-width="3.6085" stroke-linecap="round"/>
<path d="M1042.8 1284.09L1198.98 1370.26" stroke="#A04252" stroke-width="3.6085" stroke-linecap="round"/>
<path d="M1219.1 1381.36L1246.89 1396.69" stroke="#A04252" stroke-width="3.6085" stroke-linecap="round"/>
<path d="M1266.05 1407.26L1276.59 1413.07" stroke="#A04252" stroke-width="3.6085" stroke-linecap="round"/>
<path d="M987.743 1314.17L1143.62 1400.16" stroke="#A04252" stroke-width="3.6085" stroke-linecap="round"/>
<path d="M1177.32 1418.75L1237.35 1451.87" stroke="#A04252" stroke-width="3.6085" stroke-linecap="round"/>
<g filter="url(#filter10_f_39_1827)">
<rect x="859.911" y="1212.73" width="96.2969" height="104.887" rx="48.1485" fill="#FDAC1E"/>
<rect x="956.208" y="1160.28" width="96.2969" height="157.33" rx="48.1485" fill="#FDAC1E"/>
<rect x="1052.51" y="1252.58" width="96.2969" height="65.0298" rx="32.5149" fill="#FDAC1E"/>
</g>
<rect x="777.561" y="1455.65" width="132.312" height="40.7113" rx="20.3556" transform="rotate(-141.381 777.561 1455.65)" fill="#6A171F"/>
<circle cx="774.361" cy="1427.04" r="20.3556" transform="rotate(-141.381 774.361 1427.04)" fill="#A04252"/>
<circle cx="774.361" cy="1427.04" r="17.3023" transform="rotate(-141.381 774.361 1427.04)" stroke="#6A171F" stroke-width="0.678521"/>
<circle cx="774.15" cy="1427.3" r="10.8563" transform="rotate(-141.381 774.15 1427.3)" stroke="#6A171F" stroke-width="0.678521"/>
<circle cx="774.334" cy="1426.8" r="3.90149" transform="rotate(-141.381 774.334 1426.8)" stroke="#6A171F" stroke-width="0.678521"/>
<path d="M749.352 1425.73L732.954 1412.63" stroke="#A04252" stroke-width="1.01778" stroke-linecap="round"/>
<path d="M729.578 1409.94L713.179 1396.84" stroke="#A04252" stroke-width="1.01778" stroke-linecap="round"/>
<path d="M706.909 1391.83L690.511 1378.73" stroke="#A04252" stroke-width="1.01778" stroke-linecap="round"/>
<path d="M729.967 1400.69L690.659 1369.29" stroke="#A04252" stroke-width="1.01778" stroke-linecap="round"/>
<path d="M750.706 1417.26L743.713 1411.67" stroke="#A04252" stroke-width="1.01778" stroke-linecap="round"/>
<path d="M742.178 1391.34L702.87 1359.94" stroke="#A04252" stroke-width="1.01778" stroke-linecap="round"/>
<path d="M761.229 1406.56L747.242 1395.39" stroke="#A04252" stroke-width="1.01778" stroke-linecap="round"/>
<path d="M752.042 1408.78L712.735 1377.37" stroke="#A04252" stroke-width="1.01778" stroke-linecap="round"/>
<path d="M707.67 1373.33L700.677 1367.74" stroke="#A04252" stroke-width="1.01778" stroke-linecap="round"/>
<path d="M695.854 1363.89L693.202 1361.77" stroke="#A04252" stroke-width="1.01778" stroke-linecap="round"/>
<path d="M768.781 1403.04L729.551 1371.7" stroke="#A04252" stroke-width="1.01778" stroke-linecap="round"/>
<rect x="1254.28" y="1471.72" width="132.312" height="40.7113" rx="20.3556" transform="rotate(-7.74132 1254.28 1471.72)" fill="#6A171F"/>
<circle cx="1277.19" cy="1489.14" r="20.3556" transform="rotate(-7.74132 1277.19 1489.14)" fill="#A04252"/>
<circle cx="1277.19" cy="1489.14" r="17.3023" transform="rotate(-7.74132 1277.19 1489.14)" stroke="#6A171F" stroke-width="0.678521"/>
<circle cx="1277.15" cy="1488.81" r="10.8563" transform="rotate(-7.74132 1277.15 1488.81)" stroke="#6A171F" stroke-width="0.678521"/>
<circle cx="1277.38" cy="1489.29" r="3.9015" transform="rotate(-7.74132 1277.38 1489.29)" stroke="#6A171F" stroke-width="0.678521"/>
<path d="M1295.4 1471.95L1316.19 1469.12" stroke="#A04252" stroke-width="1.01778" stroke-linecap="round"/>
<path d="M1320.47 1468.54L1341.27 1465.71" stroke="#A04252" stroke-width="1.01778" stroke-linecap="round"/>
<path d="M1349.22 1464.63L1370.02 1461.8" stroke="#A04252" stroke-width="1.01778" stroke-linecap="round"/>
<path d="M1326.89 1475.2L1376.75 1468.42" stroke="#A04252" stroke-width="1.01778" stroke-linecap="round"/>
<path d="M1300.59 1478.77L1309.46 1477.57" stroke="#A04252" stroke-width="1.01778" stroke-linecap="round"/>
<path d="M1325.24 1490.49L1375.09 1483.71" stroke="#A04252" stroke-width="1.01778" stroke-linecap="round"/>
<path d="M1301.07 1493.77L1318.81 1491.36" stroke="#A04252" stroke-width="1.01778" stroke-linecap="round"/>
<path d="M1305.81 1485.6L1355.66 1478.82" stroke="#A04252" stroke-width="1.01778" stroke-linecap="round"/>
<path d="M1362.08 1477.95L1370.95 1476.74" stroke="#A04252" stroke-width="1.01778" stroke-linecap="round"/>
<path d="M1377.07 1475.91L1380.44 1475.45" stroke="#A04252" stroke-width="1.01778" stroke-linecap="round"/>
<path d="M1298.41 1501.67L1348.16 1494.9" stroke="#A04252" stroke-width="1.01778" stroke-linecap="round"/>
<defs>
<filter id="filter0_f_39_1827" x="340.703" y="811.099" width="446.088" height="681.937" filterUnits="userSpaceOnUse" color-interpolation-filters="sRGB">
<feFlood flood-opacity="0" result="BackgroundImageFix"/>
<feBlend mode="normal" in="SourceGraphic" in2="BackgroundImageFix" result="shape"/>
<feGaussianBlur stdDeviation="85.048" result="effect1_foregroundBlur_39_1827"/>
</filter>
<filter id="filter1_f_39_1827" x="446.6" y="670.456" width="446.088" height="822.581" filterUnits="userSpaceOnUse" color-interpolation-filters="sRGB">
<feFlood flood-opacity="0" result="BackgroundImageFix"/>
<feBlend mode="normal" in="SourceGraphic" in2="BackgroundImageFix" result="shape"/>
<feGaussianBlur stdDeviation="85.048" result="effect1_foregroundBlur_39_1827"/>
</filter>
<filter id="filter2_f_39_1827" x="552.496" y="561.25" width="446.088" height="931.524" filterUnits="userSpaceOnUse" color-interpolation-filters="sRGB">
<feFlood flood-opacity="0" result="BackgroundImageFix"/>
<feBlend mode="normal" in="SourceGraphic" in2="BackgroundImageFix" result="shape"/>
<feGaussianBlur stdDeviation="85.048" result="effect1_foregroundBlur_39_1827"/>
</filter>
<filter id="filter3_f_39_1827" x="976.081" y="713.476" width="446.088" height="779.458" filterUnits="userSpaceOnUse" color-interpolation-filters="sRGB">
<feFlood flood-opacity="0" result="BackgroundImageFix"/>
<feBlend mode="normal" in="SourceGraphic" in2="BackgroundImageFix" result="shape"/>
<feGaussianBlur stdDeviation="85.048" result="effect1_foregroundBlur_39_1827"/>
</filter>
<filter id="filter4_f_39_1827" x="870.185" y="609.235" width="446.088" height="883.59" filterUnits="userSpaceOnUse" color-interpolation-filters="sRGB">
<feFlood flood-opacity="0" result="BackgroundImageFix"/>
<feBlend mode="normal" in="SourceGraphic" in2="BackgroundImageFix" result="shape"/>
<feGaussianBlur stdDeviation="85.048" result="effect1_foregroundBlur_39_1827"/>
</filter>
<filter id="filter5_f_39_1827" x="764.289" y="465.282" width="446.088" height="1027.39" filterUnits="userSpaceOnUse" color-interpolation-filters="sRGB">
<feFlood flood-opacity="0" result="BackgroundImageFix"/>
<feBlend mode="normal" in="SourceGraphic" in2="BackgroundImageFix" result="shape"/>
<feGaussianBlur stdDeviation="85.048" result="effect1_foregroundBlur_39_1827"/>
</filter>
<filter id="filter6_f_39_1827" x="658.392" y="324.638" width="446.088" height="1167.89" filterUnits="userSpaceOnUse" color-interpolation-filters="sRGB">
<feFlood flood-opacity="0" result="BackgroundImageFix"/>
<feBlend mode="normal" in="SourceGraphic" in2="BackgroundImageFix" result="shape"/>
<feGaussianBlur stdDeviation="85.048" result="effect1_foregroundBlur_39_1827"/>
</filter>
<filter id="filter7_f_39_1827" x="67.8398" y="1204.57" width="1629.81" height="560.919" filterUnits="userSpaceOnUse" color-interpolation-filters="sRGB">
<feFlood flood-opacity="0" result="BackgroundImageFix"/>
<feBlend mode="normal" in="SourceGraphic" in2="BackgroundImageFix" result="shape"/>
<feGaussianBlur stdDeviation="26.4741" result="effect1_foregroundBlur_39_1827"/>
</filter>
<filter id="filter8_f_39_1827" x="320.998" y="1240.97" width="1123.49" height="359.055" filterUnits="userSpaceOnUse" color-interpolation-filters="sRGB">
<feFlood flood-opacity="0" result="BackgroundImageFix"/>
<feBlend mode="normal" in="SourceGraphic" in2="BackgroundImageFix" result="shape"/>
<feGaussianBlur stdDeviation="8.27315" result="effect1_foregroundBlur_39_1827"/>
</filter>
<filter id="filter9_f_39_1827" x="566.951" y="762.884" width="840.351" height="786.656" filterUnits="userSpaceOnUse" color-interpolation-filters="sRGB">
<feFlood flood-opacity="0" result="BackgroundImageFix"/>
<feBlend mode="normal" in="SourceGraphic" in2="BackgroundImageFix" result="shape"/>
<feGaussianBlur stdDeviation="135.629" result="effect1_foregroundBlur_39_1827"/>
</filter>
<filter id="filter10_f_39_1827" x="588.652" y="889.025" width="831.408" height="699.848" filterUnits="userSpaceOnUse" color-interpolation-filters="sRGB">
<feFlood flood-opacity="0" result="BackgroundImageFix"/>
<feBlend mode="normal" in="SourceGraphic" in2="BackgroundImageFix" result="shape"/>
<feGaussianBlur stdDeviation="135.629" result="effect1_foregroundBlur_39_1827"/>
</filter>
<linearGradient id="paint0_linear_39_1827" x1="563.747" y1="981.195" x2="563.747" y2="1322.94" gradientUnits="userSpaceOnUse">
<stop stop-color="#F32E00"/>
<stop offset="0.65" stop-color="#F3AF00"/>
<stop offset="1" stop-color="#FFEAB4"/>
</linearGradient>
<linearGradient id="paint1_linear_39_1827" x1="563.747" y1="981.195" x2="563.747" y2="1322.94" gradientUnits="userSpaceOnUse">
<stop stop-color="#F32E00"/>
<stop offset="1" stop-color="#F3AF00"/>
</linearGradient>
<linearGradient id="paint2_linear_39_1827" x1="563.747" y1="1018.89" x2="563.747" y2="1322.94" gradientUnits="userSpaceOnUse">
<stop stop-color="#FDAC1E"/>
<stop offset="1" stop-color="#FEE372"/>
</linearGradient>
<linearGradient id="paint3_linear_39_1827" x1="563.747" y1="1069.24" x2="563.747" y2="1322.4" gradientUnits="userSpaceOnUse">
<stop stop-color="#FEE372"/>
<stop offset="1" stop-color="#FBF3D1"/>
</linearGradient>
<linearGradient id="paint4_linear_39_1827" x1="563.747" y1="1112.26" x2="563.747" y2="1322.4" gradientUnits="userSpaceOnUse">
<stop stop-color="#FBF3D1"/>
<stop offset="1" stop-color="white"/>
</linearGradient>
<linearGradient id="paint5_linear_39_1827" x1="669.644" y1="840.552" x2="669.644" y2="1322.94" gradientUnits="userSpaceOnUse">
<stop stop-color="#F32E00"/>
<stop offset="0.65" stop-color="#F3AF00"/>
<stop offset="1" stop-color="#FFEAB4"/>
</linearGradient>
<linearGradient id="paint6_linear_39_1827" x1="669.644" y1="840.552" x2="669.644" y2="1322.94" gradientUnits="userSpaceOnUse">
<stop stop-color="#F32E00"/>
<stop offset="1" stop-color="#F3AF00"/>
</linearGradient>
<linearGradient id="paint7_linear_39_1827" x1="669.644" y1="893.763" x2="669.644" y2="1322.94" gradientUnits="userSpaceOnUse">
<stop stop-color="#FDAC1E"/>
<stop offset="1" stop-color="#FEE372"/>
</linearGradient>
<linearGradient id="paint8_linear_39_1827" x1="669.644" y1="964.827" x2="669.644" y2="1322.17" gradientUnits="userSpaceOnUse">
<stop stop-color="#FEE372"/>
<stop offset="1" stop-color="#FBF3D1"/>
</linearGradient>
<linearGradient id="paint9_linear_39_1827" x1="669.644" y1="1025.55" x2="669.644" y2="1322.17" gradientUnits="userSpaceOnUse">
<stop stop-color="#FBF3D1"/>
<stop offset="1" stop-color="white"/>
</linearGradient>
<linearGradient id="paint10_linear_39_1827" x1="775.54" y1="731.346" x2="775.54" y2="1322.68" gradientUnits="userSpaceOnUse">
<stop stop-color="#F32E00"/>
<stop offset="0.65" stop-color="#F3AF00"/>
<stop offset="1" stop-color="#FFEAB4"/>
</linearGradient>
<linearGradient id="paint11_linear_39_1827" x1="775.54" y1="731.346" x2="775.54" y2="1322.68" gradientUnits="userSpaceOnUse">
<stop stop-color="#F32E00"/>
<stop offset="1" stop-color="#F3AF00"/>
</linearGradient>
<linearGradient id="paint12_linear_39_1827" x1="775.54" y1="797.197" x2="775.54" y2="1323.3" gradientUnits="userSpaceOnUse">
<stop stop-color="#FDAC1E"/>
<stop offset="1" stop-color="#FEE372"/>
</linearGradient>
<linearGradient id="paint13_linear_39_1827" x1="775.54" y1="883.688" x2="775.54" y2="1321.73" gradientUnits="userSpaceOnUse">
<stop stop-color="#FEE372"/>
<stop offset="1" stop-color="#FBF3D1"/>
</linearGradient>
<linearGradient id="paint14_linear_39_1827" x1="775.54" y1="958.127" x2="775.54" y2="1321.73" gradientUnits="userSpaceOnUse">
<stop stop-color="#FBF3D1"/>
<stop offset="1" stop-color="white"/>
</linearGradient>
<linearGradient id="paint15_linear_39_1827" x1="1199.13" y1="883.572" x2="1199.13" y2="1322.84" gradientUnits="userSpaceOnUse">
<stop stop-color="#F32E00"/>
<stop offset="0.65" stop-color="#F3AF00"/>
<stop offset="1" stop-color="#FFEAB4"/>
</linearGradient>
<linearGradient id="paint16_linear_39_1827" x1="1199.13" y1="883.572" x2="1199.13" y2="1322.84" gradientUnits="userSpaceOnUse">
<stop stop-color="#F32E00"/>
<stop offset="1" stop-color="#F3AF00"/>
</linearGradient>
<linearGradient id="paint17_linear_39_1827" x1="1199.13" y1="932.488" x2="1199.13" y2="1323.3" gradientUnits="userSpaceOnUse">
<stop stop-color="#FDAC1E"/>
<stop offset="1" stop-color="#FEE372"/>
</linearGradient>
<linearGradient id="paint18_linear_39_1827" x1="1199.13" y1="996.738" x2="1199.13" y2="1322.14" gradientUnits="userSpaceOnUse">
<stop stop-color="#FEE372"/>
<stop offset="1" stop-color="#FBF3D1"/>
</linearGradient>
<linearGradient id="paint19_linear_39_1827" x1="1199.13" y1="1052.03" x2="1199.13" y2="1322.14" gradientUnits="userSpaceOnUse">
<stop stop-color="#FBF3D1"/>
<stop offset="1" stop-color="white"/>
</linearGradient>
<linearGradient id="paint20_linear_39_1827" x1="1093.23" y1="779.331" x2="1093.23" y2="1322.73" gradientUnits="userSpaceOnUse">
<stop stop-color="#F32E00"/>
<stop offset="0.65" stop-color="#F3AF00"/>
<stop offset="1" stop-color="#FFEAB4"/>
</linearGradient>
<linearGradient id="paint21_linear_39_1827" x1="1093.23" y1="779.331" x2="1093.23" y2="1322.73" gradientUnits="userSpaceOnUse">
<stop stop-color="#F32E00"/>
<stop offset="1" stop-color="#F3AF00"/>
</linearGradient>
<linearGradient id="paint22_linear_39_1827" x1="1093.23" y1="839.843" x2="1093.23" y2="1323.3" gradientUnits="userSpaceOnUse">
<stop stop-color="#FDAC1E"/>
<stop offset="1" stop-color="#FEE372"/>
</linearGradient>
<linearGradient id="paint23_linear_39_1827" x1="1093.23" y1="919.323" x2="1093.23" y2="1321.86" gradientUnits="userSpaceOnUse">
<stop stop-color="#FEE372"/>
<stop offset="1" stop-color="#FBF3D1"/>
</linearGradient>
<linearGradient id="paint24_linear_39_1827" x1="1093.23" y1="987.728" x2="1093.23" y2="1321.86" gradientUnits="userSpaceOnUse">
<stop stop-color="#FBF3D1"/>
<stop offset="1" stop-color="white"/>
</linearGradient>
<linearGradient id="paint25_linear_39_1827" x1="987.333" y1="635.378" x2="987.333" y2="1322.58" gradientUnits="userSpaceOnUse">
<stop stop-color="#F32E00"/>
<stop offset="0.65" stop-color="#F3AF00"/>
<stop offset="1" stop-color="#FFEAB4"/>
</linearGradient>
<linearGradient id="paint26_linear_39_1827" x1="987.333" y1="635.378" x2="987.333" y2="1322.58" gradientUnits="userSpaceOnUse">
<stop stop-color="#F32E00"/>
<stop offset="1" stop-color="#F3AF00"/>
</linearGradient>
<linearGradient id="paint27_linear_39_1827" x1="987.333" y1="711.904" x2="987.333" y2="1323.3" gradientUnits="userSpaceOnUse">
<stop stop-color="#FDAC1E"/>
<stop offset="1" stop-color="#FEE372"/>
</linearGradient>
<linearGradient id="paint28_linear_39_1827" x1="987.333" y1="812.417" x2="987.333" y2="1321.48" gradientUnits="userSpaceOnUse">
<stop stop-color="#FEE372"/>
<stop offset="1" stop-color="#FBF3D1"/>
</linearGradient>
<linearGradient id="paint29_linear_39_1827" x1="987.333" y1="898.925" x2="987.333" y2="1321.48" gradientUnits="userSpaceOnUse">
<stop stop-color="#FBF3D1"/>
<stop offset="1" stop-color="white"/>
</linearGradient>
<linearGradient id="paint30_linear_39_1827" x1="881.436" y1="494.734" x2="881.436" y2="1322.43" gradientUnits="userSpaceOnUse">
<stop stop-color="#F32E00"/>
<stop offset="0.65" stop-color="#F3AF00"/>
<stop offset="1" stop-color="#FFEAB4"/>
</linearGradient>
<linearGradient id="paint31_linear_39_1827" x1="881.436" y1="494.734" x2="881.436" y2="1322.43" gradientUnits="userSpaceOnUse">
<stop stop-color="#F32E00"/>
<stop offset="1" stop-color="#F3AF00"/>
</linearGradient>
<linearGradient id="paint32_linear_39_1827" x1="881.436" y1="586.906" x2="881.436" y2="1323.3" gradientUnits="userSpaceOnUse">
<stop stop-color="#FDAC1E"/>
<stop offset="1" stop-color="#FEE372"/>
</linearGradient>
<linearGradient id="paint33_linear_39_1827" x1="881.436" y1="707.969" x2="881.436" y2="1321.11" gradientUnits="userSpaceOnUse">
<stop stop-color="#FEE372"/>
<stop offset="1" stop-color="#FBF3D1"/>
</linearGradient>
<linearGradient id="paint34_linear_39_1827" x1="881.436" y1="812.163" x2="881.436" y2="1321.11" gradientUnits="userSpaceOnUse">
<stop stop-color="#FBF3D1"/>
<stop offset="1" stop-color="white"/>
</linearGradient>
<linearGradient id="paint35_linear_39_1827" x1="883.572" y1="1231.87" x2="882.724" y2="1712.54" gradientUnits="userSpaceOnUse">
<stop stop-color="#F99917"/>
<stop offset="1" stop-color="#E59C35" stop-opacity="0"/>
</linearGradient>
<linearGradient id="paint36_linear_39_1827" x1="887.849" y1="1163.18" x2="887.849" y2="1278.28" gradientUnits="userSpaceOnUse">
<stop stop-color="#F3AF00"/>
<stop offset="1" stop-color="#FFEAB4"/>
</linearGradient>
<linearGradient id="paint37_linear_39_1827" x1="987.127" y1="1046.55" x2="987.127" y2="1278.28" gradientUnits="userSpaceOnUse">
<stop stop-color="#F3AF00"/>
<stop offset="1" stop-color="#FFEAB4"/>
</linearGradient>
<linearGradient id="paint38_linear_39_1827" x1="1086.4" y1="1206.92" x2="1086.4" y2="1278.28" gradientUnits="userSpaceOnUse">
<stop stop-color="#F3AF00"/>
<stop offset="1" stop-color="#FFEAB4"/>
</linearGradient>
</defs>
</svg>
